<svg width="500" height="500" viewBox="0 0 500 500" fill="none" xmlns="http://www.w3.org/2000/svg">
<rect width="500" height="500" fill="black"/>
<path d="M69 243C69 243 70.5 247 88 243C105.5 239 266.5 209 332 237C397.5 265 429 278 429 278" stroke="white" stroke-width="5"/>
<path d="M69 243C69 243 70.5 247 88 243C105.5 239 266.5 209 332 237C397.5 265 429 278 429 278" stroke="#C5C5C5" stroke-width="5"/>
<path d="M429 278C429 278 417.5 271.5 403.5 265.5C389.5 259.5 364 252.5 337.5 252.5C311 252.5 286.5 257 261.5 254.5C236.5 252 91.5 244.5 91.5 244.5C91.5 244.5 82.5 246.5 77.5 247.5C72.5 248.5 69 246.5 69 246.5" stroke="#C5C5C5" stroke-width="5"/>
<path d="M429 278C429 278 417.5 271.5 403.5 265.5C389.5 259.5 364 252.5 337.5 252.5C311 252.5 286.5 257 261.5 254.5C236.5 252 91.5 244.5 91.5 244.5C91.5 244.5 82.5 246.5 77.5 247.5C72.5 248.5 69 246.5 69 246.5" stroke="white" stroke-width="5"/>
<path d="M429 278C429 278 417.5 271.5 403.5 265.5C389.5 259.5 364 252.5 337.5 252.5C311 252.5 286.5 257 261.5 254.5C236.5 252 91.5 244.5 91.5 244.5C91.5 244.5 82.5 246.5 77.5 247.5C72.5 248.5 69 246.5 69 246.5" stroke="#C5C5C5" stroke-width="5"/>
<path d="M429 278C429 278 417.5 271.5 403.5 265.5C389.5 259.5 364 252.5 337.5 252.5C311 252.5 286.5 257 261.5 254.5C236.5 252 91.5 244.5 91.5 244.5C91.5 244.5 82.5 246.5 77.5 247.5C72.5 248.5 69 246.5 69 246.5" stroke="black" stroke-width="2"/>
<path d="M429 278C429 278 417.5 271.5 403.5 265.5C389.5 259.5 364 252.5 337.5 252.5C311 252.5 286.5 257 261.5 254.5C236.5 252 91.5 244.5 91.5 244.5C91.5 244.5 82.5 246.5 77.5 247.5C72.5 248.5 69 246.5 69 246.5" stroke="#C5C5C5" stroke-width="2"/>
<path d="M77 247C77 247 74.5 248.5 71.5 250.5C68.5 252.5 69.5 259 69.5 259" stroke="#FF0000" stroke-width="3"/>
<path d="M429 278C429 278 433 282.5 436 284.5C439 286.5 443 278.5 443 278.5" stroke="#FF0000" stroke-width="3"/>
</svg>
