<?xml version="1.0" standalone="no"?>
<!DOCTYPE svg PUBLIC "-//W3C//DTD SVG 20010904//EN"
 "http://www.w3.org/TR/2001/REC-SVG-20010904/DTD/svg10.dtd">
<svg version="1.0" xmlns="http://www.w3.org/2000/svg"
 width="450.000000pt" height="450.000000pt" viewBox="0 0 450.000000 450.000000"
 preserveAspectRatio="xMidYMid meet">

<g transform="translate(0.000000,450.000000) scale(0.100000,-0.100000)"
fill="#000000" stroke="none">
<path d="M2075 4494 c-16 -2 -70 -9 -120 -15 -731 -88 -1397 -569 -1725 -1244
-161 -332 -224 -609 -224 -985 0 -376 63 -653 224 -985 289 -596 839 -1041
1480 -1199 196 -48 308 -60 540 -60 376 0 653 63 985 224 596 289 1041 839
1199 1480 48 196 60 308 60 540 0 232 -12 344 -60 540 -108 437 -367 861 -704
1153 -326 282 -719 465 -1145 532 -94 15 -445 28 -510 19z m445 -2000 c108
-22 229 -64 357 -125 62 -29 111 -54 110 -56 -2 -1 -71 22 -153 52 -346 124
-534 147 -824 99 -103 -17 -281 -59 -317 -74 -36 -15 -27 -26 42 -51 35 -12
62 -25 61 -28 -2 -3 -75 -1 -163 5 -87 6 -228 11 -313 13 -85 1 -166 4 -180 6
-14 1 -52 3 -85 5 l-60 2 60 14 c307 69 794 141 1065 158 101 6 324 -5 400
-20z m-1976 -206 c45 -8 80 -8 145 2 97 15 269 15 756 0 435 -14 665 -30 955
-66 137 -18 417 -23 895 -16 182 3 224 0 313 -18 112 -23 227 -63 300 -106 64
-38 37 -42 -36 -5 -72 37 -157 65 -269 92 -71 17 -117 20 -267 19 -100 0 -224
-5 -276 -10 -145 -13 -530 -4 -770 19 -118 11 -336 25 -485 32 -148 6 -272 13
-275 15 -4 1 -155 6 -337 10 -243 5 -373 3 -487 -6 -124 -11 -166 -11 -210 -1
-59 13 -71 23 -62 48 4 10 13 13 29 9 12 -4 49 -12 81 -18z m2406 -23 c28 -14
50 -30 50 -35 0 -6 -31 -10 -70 -10 -62 0 -70 2 -70 19 0 17 24 51 36 51 3 0
27 -11 54 -25z"/>
</g>
</svg>
